<svg xmlns="http://www.w3.org/2000/svg" version="1.1" xmlns:xlink="http://www.w3.org/1999/xlink" xmlns:svgjs="http://svgjs.com/svgjs" width="1920" height="1080" preserveAspectRatio="none" viewBox="0 0 1920 1080"><g mask="url(&quot;#SvgjsMask4359&quot;)" fill="none"><rect width="1920" height="1080" x="0" y="0" fill="rgba(13, 105, 163, 1)"></rect><path d="M1920 0L1410.93 0L1920 268.27z" fill="rgba(255, 255, 255, .1)"></path><path d="M1410.93 0L1920 268.27L1920 550.8599999999999L918.73 0z" fill="rgba(255, 255, 255, .075)"></path><path d="M918.73 0L1920 550.8599999999999L1920 740.3599999999999L475.1 0z" fill="rgba(255, 255, 255, .05)"></path><path d="M475.0999999999999 0L1920 740.3599999999999L1920 807.5699999999999L299.2899999999999 0z" fill="rgba(255, 255, 255, .025)"></path><path d="M0 1080L333.16 1080L0 813.6700000000001z" fill="rgba(0, 0, 0, .1)"></path><path d="M0 813.6700000000001L333.16 1080L816.82 1080L0 386.9600000000001z" fill="rgba(0, 0, 0, .075)"></path><path d="M0 386.96000000000004L816.82 1080L853.58 1080L0 196.56000000000003z" fill="rgba(0, 0, 0, .05)"></path><path d="M0 196.56000000000006L853.58 1080L860.3100000000001 1080L0 191.92000000000007z" fill="rgba(0, 0, 0, .025)"></path></g><defs><mask id="SvgjsMask4359"><rect width="1920" height="1080" fill="#ffffff"></rect></mask></defs></svg>