<svg xmlns="http://www.w3.org/2000/svg" version="1.1" xmlns:xlink="http://www.w3.org/1999/xlink" xmlns:svgjs="http://svgjs.com/svgjs" width="1920" height="1080" preserveAspectRatio="none" viewBox="0 0 1920 1080"><g mask="url(&quot;#SvgjsMask1013&quot;)" fill="none"><rect width="1920" height="1080" x="0" y="0" fill="rgba(5, 38, 59, 1)"></rect><path d="M1920 0L1157.08 0L1920 266.53z" fill="rgba(255, 255, 255, .1)"></path><path d="M1157.08 0L1920 266.53L1920 552.22L875.74 0z" fill="rgba(255, 255, 255, .075)"></path><path d="M875.74 0L1920 552.22L1920 718.47L818.69 0z" fill="rgba(255, 255, 255, .05)"></path><path d="M818.69 0L1920 718.47L1920 870.84L287.94000000000005 0z" fill="rgba(255, 255, 255, .025)"></path><path d="M0 1080L88.15 1080L0 940.96z" fill="rgba(0, 0, 0, .1)"></path><path d="M0 940.96L88.15 1080L830.35 1080L0 737.59z" fill="rgba(0, 0, 0, .075)"></path><path d="M0 737.59L830.35 1080L858.72 1080L0 319.87z" fill="rgba(0, 0, 0, .05)"></path><path d="M0 319.87L858.72 1080L1561.35 1080L0 224.61z" fill="rgba(0, 0, 0, .025)"></path></g><defs><mask id="SvgjsMask1013"><rect width="1920" height="1080" fill="#ffffff"></rect></mask></defs></svg>